HIERARCHY
ROOT Hips
{
 OFFSET 0.000000 0.000000 0.000000
 CHANNELS 6 Xposition Yposition Zposition Yrotation Xrotation Zrotation
 JOINT Chest
 {
  OFFSET 0.000000 9.857222 0.000240
  CHANNELS 3 Yrotation Xrotation Zrotation
  JOINT Chest2
  {
   OFFSET 0.000000 10.876940 -0.000436
   CHANNELS 3 Yrotation Xrotation Zrotation
   JOINT Chest3
   {
    OFFSET 0.000000 9.827798 0.000000
    CHANNELS 3 Yrotation Xrotation Zrotation
    JOINT Chest4
    {
     OFFSET 0.000000 9.827798 0.000000
     CHANNELS 3 Yrotation Xrotation Zrotation
     JOINT Neck
     {
      OFFSET 0.000000 13.831992 0.000000
      CHANNELS 3 Yrotation Xrotation Zrotation
      JOINT Head
      {
       OFFSET 0.000000 9.147643 -0.001036
       CHANNELS 3 Yrotation Xrotation Zrotation
       End Site
       {
        OFFSET 0.000000 17.515799 -0.000541
       }
      }
     }
     JOINT RightCollar
     {
      OFFSET -3.001579 7.717577 0.000000
      CHANNELS 3 Yrotation Xrotation Zrotation
      JOINT RightShoulder
      {
       OFFSET -14.002642 0.000000 0.000000
       CHANNELS 3 Yrotation Xrotation Zrotation
       JOINT RightElbow
       {
        OFFSET -30.053852 0.000000 0.000000
        CHANNELS 3 Yrotation Xrotation Zrotation
        JOINT RightWrist
        {
         OFFSET -24.564923 0.000000 -0.000000
         CHANNELS 3 Yrotation Xrotation Zrotation
         End Site
         {
          OFFSET -18.334355 0.000000 0.000000
         }
        }
       }
      }
     }
     JOINT LeftCollar
     {
      OFFSET 3.001579 7.717577 0.000000
      CHANNELS 3 Yrotation Xrotation Zrotation
      JOINT LeftShoulder
      {
       OFFSET 14.002642 0.000000 0.000000
       CHANNELS 3 Yrotation Xrotation Zrotation
       JOINT LeftElbow
       {
        OFFSET 30.053852 0.000000 0.000000
        CHANNELS 3 Yrotation Xrotation Zrotation
        JOINT LeftWrist
        {
         OFFSET 24.564923 0.000000 -0.000000
         CHANNELS 3 Yrotation Xrotation Zrotation
         End Site
         {
          OFFSET 18.334355 0.000000 0.000000
         }
        }
       }
      }
     }
    }
   }
  }
 }
 JOINT RightHip
 {
  OFFSET -8.003235 -0.001175 -0.000120
  CHANNELS 3 Yrotation Xrotation Zrotation
  JOINT RightKnee
  {
   OFFSET 0.000000 -41.759727 0.000113
   CHANNELS 3 Yrotation Xrotation Zrotation
   JOINT RightAnkle
   {
    OFFSET 0.000000 -40.728748 0.000159
    CHANNELS 3 Yrotation Xrotation Zrotation
    JOINT RightToe
    {
     OFFSET 0.000000 -6.515296 14.732841
     CHANNELS 3 Yrotation Xrotation Zrotation
     End Site
     {
      OFFSET 0.000000 -1.502839 6.412115
     }
    }
   }
  }
 }
 JOINT LeftHip
 {
  OFFSET 8.003235 -0.001175 -0.000120
  CHANNELS 3 Yrotation Xrotation Zrotation
  JOINT LeftKnee
  {
   OFFSET 0.000000 -41.759727 0.000113
   CHANNELS 3 Yrotation Xrotation Zrotation
   JOINT LeftAnkle
   {
    OFFSET 0.000000 -40.728748 0.000159
    CHANNELS 3 Yrotation Xrotation Zrotation
    JOINT LeftToe
    {
     OFFSET 0.000000 -6.515296 14.732841
     CHANNELS 3 Yrotation Xrotation Zrotation
     End Site
     {
      OFFSET 0.000000 -1.502839 6.412115
     }
    }
   }
  }
 }
}
MOTION
Frames: 7
Frame Time: 0.016667
0.000000 88.822259 0.000000 0.000000 -5.826342 0.000000 0.000000 11.116423 0.000000 0.000000 -5.290081 0.000000 0.000000 0.000000 0.000000 0.000000 0.000000 0.000000 0.000000 12.665069 0.000000 0.000000 0.575450 0.000000 0.000000 0.000000 0.000000 0.000000 0.000000 0.000000 2.337306 0.000000 0.000000 -2.337306 0.000000 0.000000 0.000000 0.000000 0.000000 0.000000 0.000000 0.000000 -2.337306 0.000000 0.000000 2.337306 0.000000 0.000000 0.000000 8.578828 0.000000 0.000000 1.905768 0.000000 0.000000 -4.658254 0.000000 0.000000 0.000000 0.000000 0.000000 8.578828 0.000000 0.000000 1.905768 0.000000 0.000000 -4.658254 0.000000 0.000000 0.000000 0.000000
0.487421 90.606845 17.858674 -31.939488 -15.597456 -1.568363 1.122390 7.305549 0.264506 0.580528 3.219829 0.136912 0.580528 3.219829 0.136912 0.434559 2.415004 0.099595 -1.733237 18.359287 1.501192 -3.678904 -2.018743 3.328777 8.462224 5.684353 10.917623 58.179141 -5.542926 83.626202 14.823106 1.222105 3.259497 -8.267491 3.486560 -8.023045 -22.262021 11.981518 -12.664398 -22.178347 8.873014 -57.828687 -29.706413 -24.524507 -6.640248 5.212247 8.108171 1.854151 -3.195148 25.815910 -3.352766 6.321780 -6.073243 3.539694 -0.572574 -5.376701 -0.193781 -0.202854 0.200402 -0.125761 2.966613 14.874864 6.481923 -2.746225 3.672016 -5.340939 0.217962 -3.194563 -0.056354 0.117154 -0.006136 0.014611
0.506554 90.609631 17.843119 -31.925680 -15.657162 -1.560099 1.106771 7.317186 0.256919 0.582868 3.225463 0.138602 0.582868 3.225463 0.138602 0.436303 2.419232 0.100845 -1.733182 18.355691 1.495328 -3.677014 -2.025680 3.318127 8.554109 5.717824 10.936548 57.664024 -5.498641 83.268233 15.109520 1.026462 3.562408 -8.363219 3.444050 -7.864636 -22.329976 12.041864 -12.698249 -22.229007 8.857059 -57.704940 -29.856114 -24.883734 -6.468510 5.051091 8.000035 1.860887 -3.173256 25.841945 -3.351163 6.271681 -6.028204 3.532401 -0.583840 -5.380308 -0.156747 -0.198378 0.193038 -0.136365 2.834842 14.878266 6.416656 -2.665356 3.771591 -5.311964 0.247528 -3.205640 -0.055708 0.112403 -0.022840 0.014207
0.533448 90.616232 17.822028 -31.872738 -15.670547 -1.567001 1.102931 7.307096 0.259381 0.580209 3.225838 0.138790 0.580209 3.225838 0.138790 0.434309 2.419513 0.101000 -1.738880 18.333583 1.499880 -3.689805 -2.066262 3.329211 8.753235 5.774649 11.026039 56.868386 -5.512812 82.837748 15.528701 0.514384 3.753087 -8.482680 3.537191 -7.371790 -22.443589 12.024691 -12.718419 -22.390660 8.975147 -57.648310 -30.277591 -25.752352 -5.963250 4.846085 7.890289 1.750765 -3.178498 25.810793 -3.355804 6.174586 -5.969028 3.552011 -0.543423 -5.362002 -0.115157 -0.204640 0.164128 -0.153018 2.634526 14.821484 6.353794 -2.564333 3.886735 -5.287191 0.247636 -3.211968 -0.069745 0.126965 -0.042176 0.024739
0.570542 90.620586 17.789141 -31.739662 -15.559835 -1.578862 1.070435 7.268394 0.272485 0.558182 3.214296 0.140041 0.558182 3.214296 0.140041 0.417790 2.410852 0.102065 -1.744030 18.262460 1.497033 -3.701004 -2.198169 3.328431 8.995378 5.760886 11.120056 56.378204 -5.564551 82.783803 16.133112 -0.723947 3.224445 -8.426760 3.708011 -6.562187 -22.478131 11.863788 -12.691467 -22.583578 9.278875 -57.640465 -31.164939 -27.022148 -5.277435 4.619162 7.905153 1.675443 -3.245099 25.654115 -3.380536 6.046258 -5.915524 3.600881 -0.492726 -5.336724 -0.074396 -0.224783 0.137975 -0.174643 2.336528 14.628886 6.286058 -2.476133 3.997305 -5.299885 0.237001 -3.208584 -0.075493 0.157502 -0.052742 0.042827
0.608546 90.620517 17.744727 -31.549246 -15.378783 -1.587800 1.004750 7.256235 0.295347 0.518673 3.202735 0.138611 0.518673 3.202735 0.138611 0.388176 2.402171 0.101211 -1.736861 18.123289 1.488771 -3.690339 -2.457155 3.316283 9.185745 5.536011 11.161672 56.274639 -5.365216 82.846822 17.218374 -2.402194 2.373009 -8.017912 3.710080 -5.853955 -22.441624 11.663050 -12.622279 -22.471440 9.387929 -57.684645 -32.658223 -27.974218 -4.241598 4.339278 7.525739 1.530794 -3.372816 25.440048 -3.412356 5.930188 -5.883529 3.644590 -0.487569 -5.317478 -0.043914 -0.232214 0.128169 -0.186247 1.985383 14.350380 6.212729 -2.427386 4.116786 -5.324093 0.236805 -3.213790 -0.086608 0.195938 -0.048832 0.063342
0.643893 90.623270 17.695590 -31.370938 -15.217814 -1.569109 0.927464 7.295822 0.288607 0.487481 3.203214 0.130265 0.487481 3.203214 0.130265 0.364832 2.402516 0.095116 -1.719556 17.928213 1.492797 -3.667218 -2.819798 3.325531 9.301982 5.236497 11.166001 55.954311 -4.800949 82.209334 18.951783 -3.586199 2.142909 -7.394878 3.666394 -5.626988 -22.367159 11.542516 -12.521216 -22.069139 9.342298 -57.619080 -34.872014 -29.498788 -2.728383 4.000069 7.343715 1.617960 -3.643885 25.250162 -3.530810 5.900527 -5.870813 3.705500 -0.452345 -5.299719 -0.042150 -0.219117 0.128834 -0.183628 1.651382 14.099972 6.108881 -2.382143 4.214757 -5.333913 0.259082 -3.192193 -0.088755 0.207193 -0.057294 0.070180
